<svg width="25" height="25" viewBox="0 0 25 25" xmlns="http://www.w3.org/2000/svg">
  <path d="M10.9375 2.73438C9.86055 2.73438 8.98438 3.61055 8.98438 4.6875V5.85938H5.07812C4.64688 5.85938 4.29688 6.20937 4.29688 6.64062C4.29688 7.07188 4.64688 7.42188 5.07812 7.42188H5.9021L6.55975 19.2703C6.62928 20.5117 7.65633 21.4844 8.89969 21.4844H16.1003C17.3433 21.4844 18.3707 20.5117 18.4402 19.2703L19.0979 7.42188H19.9219C20.3531 7.42188 20.7031 7.07188 20.7031 6.64062C20.7031 6.20937 20.3531 5.85938 19.9219 5.85938H16.0156V4.6875C16.0156 3.61055 15.1395 2.73438 14.0625 2.73438H10.9375ZM10.9375 4.29688H14.0625C14.2781 4.29688 14.4531 4.47227 14.4531 4.6875V5.85938H10.5469V4.6875C10.5469 4.47227 10.7219 4.29688 10.9375 4.29688ZM7.46613 7.42188H17.5339L16.88 19.1833C16.857 19.5974 16.5148 19.9219 16.1003 19.9219H8.89969C8.48563 19.9219 8.14301 19.5978 8.11996 19.1841L7.46613 7.42188ZM12.5 9.08203C12.1223 9.08203 11.8164 9.38828 11.8164 9.76562V17.5781C11.8164 17.9555 12.1223 18.2617 12.5 18.2617C12.8777 18.2617 13.1836 17.9555 13.1836 17.5781V9.76562C13.1836 9.38828 12.8777 9.08203 12.5 9.08203ZM9.62601 9.08279C9.24905 9.09608 8.95394 9.41193 8.96683 9.78928L9.2392 17.6353C9.25209 18.0045 9.55562 18.2953 9.92203 18.2953C9.93023 18.2953 9.93824 18.2953 9.94644 18.2953C10.3234 18.282 10.6185 17.9654 10.6056 17.588L10.3333 9.74197C10.32 9.36502 10.0026 9.07381 9.62601 9.08279ZM15.3732 9.08279C14.9955 9.07225 14.68 9.36502 14.6667 9.74197L14.3944 17.588C14.3811 17.9654 14.6762 18.282 15.0536 18.2953C15.0618 18.2957 15.0698 18.2953 15.078 18.2953C15.4444 18.2953 15.7479 18.0045 15.7608 17.6353L16.0332 9.78928C16.0465 9.41193 15.7506 9.09608 15.3732 9.08279Z"/>
</svg>
